<?xml version="1.0" encoding="UTF-8"?><svg id="Layer_1" xmlns="http://www.w3.org/2000/svg" viewBox="0 0 95.4 54.2"><defs><style>.cls-1{fill:#00aeef;}</style></defs><path class="cls-1" d="M7.7,52.89L39.92,20.97c4.12-4.08-2.24-10.45-6.36-6.36L1.33,46.52c-4.12,4.08,2.24,10.45,6.36,6.36h0Z"/><path class="cls-1" d="M33.46,21.07l20.29,20.1c4.12,4.08,10.49-2.28,6.36-6.36L39.82,14.7c-4.12-4.08-10.49,2.28-6.36,6.36h0Z"/><path class="cls-1" d="M60.11,41.32L94.07,7.68c4.12-4.08-2.24-10.45-6.36-6.36L53.75,34.96c-4.12,4.08,2.24,10.45,6.36,6.36h0Z"/><path class="cls-1" d="M90.73,0h-15.75c-5.79,0-5.8,9,0,9h15.75c5.79,0,5.8-9,0-9h0Z"/><path class="cls-1" d="M86.23,4.5v14.39c0,5.79,9,5.8,9,0V4.5c0-5.79-9-5.8-9,0h0Z"/></svg>